<?xml version="1.0" encoding="UTF-8" standalone="no"?>
<!-- Created with Inkscape (http://www.inkscape.org/) -->

<svg
   version="1.1"
   id="svg2"
   xml:space="preserve"
   width="349.95999"
   height="281.30667"
   viewBox="0 0 349.95999 281.30667"
   sodipodi:docname="vector-logo-black.svg"
   inkscape:version="1.1.2 (b8e25be833, 2022-02-05)"
   xmlns:inkscape="http://www.inkscape.org/namespaces/inkscape"
   xmlns:sodipodi="http://sodipodi.sourceforge.net/DTD/sodipodi-0.dtd"
   xmlns="http://www.w3.org/2000/svg"
   xmlns:svg="http://www.w3.org/2000/svg"><defs
     id="defs6" /><sodipodi:namedview
     id="namedview4"
     pagecolor="#ffffff"
     bordercolor="#666666"
     borderopacity="1.0"
     inkscape:pageshadow="2"
     inkscape:pageopacity="0.0"
     inkscape:pagecheckerboard="0"
     showgrid="false"
     inkscape:zoom="1.3715585"
     inkscape:cx="175.34797"
     inkscape:cy="140.35129"
     inkscape:window-width="1920"
     inkscape:window-height="940"
     inkscape:window-x="0"
     inkscape:window-y="0"
     inkscape:window-maximized="1"
     inkscape:current-layer="g10" /><g
     id="g8"
     inkscape:groupmode="layer"
     inkscape:label="ink_ext_XXXXXX"
     transform="matrix(1.3333333,0,0,-1.3333333,0,281.30667)"><g
       id="g10"
       transform="scale(0.1)"><path
         d="M 73.8555,3.28125 0.00390625,197.422 H 36.2461 L 94.4258,36.9609 152.297,197.422 h 35.625 L 114.07,3.28125 H 73.8555"
         style="fill:#100f0d;fill-opacity:1;fill-rule:nonzero;stroke:none"
         id="path12" /><path
         d="M 340.848,32.6914 V 3.30078 H 220.246 V 197.441 H 338.902 V 168 H 253.266 V 115.73 H 332.68 V 86.9492 H 253.266 V 32.6914 h 87.582"
         style="fill:#100f0d;fill-opacity:1;fill-rule:nonzero;stroke:none"
         id="path14" /><path
         d="m 529.086,150.359 c -13.418,12.75 -32.008,20.262 -53.598,20.262 -38.265,0 -65.718,-28.121 -65.718,-70.269 0,-42.8207 28.777,-70.2817 66.691,-70.2817 21.898,0 39.559,6.5313 54.918,19.9492 V 14.3906 C 514.383,4.25 495.402,0.0117188 475.488,0.0117188 415.676,0.0117188 375.465,41.1914 375.465,100.352 c 0,59.5 42.152,100.328 100.023,100.328 19.914,0 37.922,-4.239 53.598,-13.731 v -36.59"
         style="fill:#100f0d;fill-opacity:1;fill-rule:nonzero;stroke:none"
         id="path16" /><path
         d="M 650.309,3.28125 H 616.977 V 168.02 h -61.45 v 29.402 H 711.441 V 168.02 H 650.309 V 3.28125"
         style="fill:#100f0d;fill-opacity:1;fill-rule:nonzero;stroke:none"
         id="path18" /><path
         d="m 836.254,200.699 c 55.883,0 100.687,-40.84 100.687,-100.34 0,-59.4996 -44.804,-100.3394687 -100.687,-100.3394687 -56.199,0 -100.652,40.8398687 -100.652,100.3394687 0,59.5 44.453,100.34 100.652,100.34 m 0,-30.07 c -37.258,0 -66.352,-27.797 -66.352,-70.27 0,-42.5074 29.094,-70.2692 66.352,-70.2692 37.254,0 66.348,27.7618 66.348,70.2692 0,42.473 -29.094,70.27 -66.348,70.27"
         style="fill:#100f0d;fill-opacity:1;fill-rule:nonzero;stroke:none"
         id="path20" /><path
         d="M 1013.68,3.28125 H 980.355 V 197.109 c 11.743,1.942 32.665,3.582 48.335,3.582 51.03,0 78.8,-22.562 78.8,-63.402 0,-28.418 -16.02,-49.0273 -38.58,-57.5195 l 58.53,-76.48825 h -40.22 l -51.64,68.95705 h -21.9 z m 0,96.41015 h 16.34 c 26.48,0 43.48,11.4296 43.48,36.5976 0,22.242 -15.36,35.313 -44.81,35.313 -3.88,0 -11.39,-0.313 -15.01,-0.661 V 99.6914"
         style="fill:#100f0d;fill-opacity:1;fill-rule:nonzero;stroke:none"
         id="path22" /><path
         d="m 1259.43,3.28125 h 33.33 V 197.422 h -33.33 V 3.28125"
         style="fill:#100f0d;fill-opacity:1;fill-rule:nonzero;stroke:none"
         id="path24" /><path
         d="M 1463.02,53.9414 V 197.41 h 32.36 V 3.26953 h -32 L 1363.66,145.449 V 3.26953 h -32.35 V 197.41 h 33.98 l 97.73,-143.4686"
         style="fill:#100f0d;fill-opacity:1;fill-rule:nonzero;stroke:none"
         id="path26" /><path
         d="m 1539.15,48.3906 c 15.01,-11.4414 30.72,-19.9492 51.3,-19.9492 19.28,0 35.96,7.5391 35.96,27.1406 0,17.9571 -14.03,24.8477 -35.62,31.3789 -37.26,11.75 -54.25,26.4491 -54.25,59.1481 0,35.321 28.43,54.571 61.76,54.571 20.93,0 36.6,-5.879 49.7,-14.692 V 152.66 c -15.4,12.399 -30.1,19.59 -48.73,19.59 -18.63,0 -30.06,-10.109 -30.06,-25.16 0,-15.668 11.12,-22.211 35.62,-30.059 37.92,-11.441 54.26,-27.4607 54.26,-60.4802 C 1659.09,17.6719 1628.36,0 1590.79,0 c -21.27,0 -39.24,5.92188 -51.64,14.3906 v 34"
         style="fill:#100f0d;fill-opacity:1;fill-rule:nonzero;stroke:none"
         id="path28" /><path
         d="M 1776.73,3.28125 H 1743.4 V 168.02 h -61.45 v 29.402 h 155.92 V 168.02 h -61.14 V 3.28125"
         style="fill:#100f0d;fill-opacity:1;fill-rule:nonzero;stroke:none"
         id="path30" /><path
         d="m 1873.43,3.28125 h 33.33 V 197.422 h -33.33 V 3.28125"
         style="fill:#100f0d;fill-opacity:1;fill-rule:nonzero;stroke:none"
         id="path32" /><path
         d="m 2037.18,3.28125 h -33.34 V 168.02 h -61.44 v 29.402 h 155.92 V 168.02 h -61.14 V 3.28125"
         style="fill:#100f0d;fill-opacity:1;fill-rule:nonzero;stroke:none"
         id="path34" /><path
         d="m 2130.3,197.43 h 33.33 V 75.5117 c 0,-37.2617 19.6,-47.0625 48.38,-47.0625 15.05,0 26.8,1.3203 38.22,3.2696 V 197.43 h 33.37 V 8.85156 c -18.01,-4.91015 -48.38,-8.8320287 -71.59,-8.8320287 -44.1,0 -81.71,15.6718687 -81.71,69.6210687 V 197.43"
         style="fill:#100f0d;fill-opacity:1;fill-rule:nonzero;stroke:none"
         id="path36" /><path
         d="m 2413.96,3.28125 h -33.33 V 168.02 h -61.48 v 29.402 H 2475.1 V 168.02 h -61.14 V 3.28125"
         style="fill:#100f0d;fill-opacity:1;fill-rule:nonzero;stroke:none"
         id="path38" /><path
         d="M 2624.74,32.6914 V 3.30078 h -120.6 V 197.441 H 2622.8 V 168 h -85.64 v -52.27 h 79.41 V 86.9492 h -79.41 V 32.6914 h 87.58"
         style="fill:#100f0d;fill-opacity:1;fill-rule:nonzero;stroke:none"
         id="path40" /><path
         d="m 1416.33,958.879 -352.58,925.751 h 175.28 v 115.82 H 631.359 v -115.82 h 175.668 l 459.573,-1203.7 56.12,-131.61 124.3,333.289 -30.69,76.27"
         style="fill:#231f20;fill-opacity:1;fill-rule:nonzero;stroke:none"
         id="path42" /><path
         d="m 1877.48,2109.76 -337.03,-147.44 -60.55,-141.28 268.08,111.14 -179.25,-442.22 -1.76,-4.28 59.66,-149.15 222.15,555.36 116.59,-265.5 59.62,139.15 -147.51,344.22"
         style="fill:#ec008c;fill-opacity:1;fill-rule:nonzero;stroke:none"
         id="path44" /><path
         d="m 1403.99,589.66 h 2.88 c 4.12,0 6.79,1.442 6.79,5.352 0,3.707 -2.88,5.347 -6.58,5.347 -0.63,0 -2.27,0 -3.09,-0.187 z m 0,-19.762 h -9.05 v 37.461 c 3.08,0.621 8.03,1.243 11.93,1.243 9.27,0 16.26,-4.321 16.26,-13.59 0,-5.153 -2.88,-9.262 -6.79,-11.114 l 10.09,-14 h -10.51 l -8.23,11.942 h -3.7 z m 35,18.321 c 0,17.91 -12.56,31.91 -30.67,31.91 -17.92,0 -30.48,-14 -30.48,-31.91 0,-17.5 12.56,-31.707 30.48,-31.707 18.11,0 30.67,14.207 30.67,31.707 z m -69.18,0 c 0,22.019 16.26,39.113 38.51,39.113 22.42,0 38.7,-17.094 38.7,-39.113 0,-21.821 -16.28,-38.899 -38.7,-38.899 -22.25,0 -38.51,17.078 -38.51,38.899"
         style="fill:#231f20;fill-opacity:1;fill-rule:nonzero;stroke:none"
         id="path46" /></g></g></svg>
